<svg xmlns="http://www.w3.org/2000/svg" xmlns:xlink="http://www.w3.org/1999/xlink" width="138.608" height="138.608" viewBox="0 0 138.608 138.608">
  <defs>
    <style>
      .cls-1 {
        fill: url(#linear-gradient);
      }
    </style>
    <linearGradient id="linear-gradient" y1="0.5" x2="1" y2="0.5" gradientUnits="objectBoundingBox">
      <stop offset="0" stop-color="#ffb5cc"/>
      <stop offset="1" stop-color="#9dd2d8"/>
    </linearGradient>
  </defs>
  <path id="Path_1" data-name="Path 1" class="cls-1" d="M147.3,443.464a69.3,69.3,0,0,0-69.3,69.3q0,2.24.141,4.44l33.837-33.837A7.514,7.514,0,1,1,122.6,494L81.625,534.969a68.925,68.925,0,0,0,2.751,6.885l26.933-26.934a7.512,7.512,0,1,1,10.626,10.622L92.4,555.074a67.674,67.674,0,0,0,4.434,5.2l8.6-8.6A7.513,7.513,0,0,1,116.062,562.3l-7.765,7.765a68.85,68.85,0,0,0,27.8,11.107c.8.128,1.6.245,2.407.346a69.5,69.5,0,0,0,8.8.555c2.061,0,4.109-.089,6.124-.27q1.32-.115,2.622-.279A69.307,69.307,0,0,0,147.3,443.464Zm-8.543,37.265a7.512,7.512,0,1,1,2.2-5.312A7.514,7.514,0,0,1,138.755,480.729Z" transform="translate(-77.994 -443.464)"/>
</svg>
